<svg xmlns="http://www.w3.org/2000/svg" viewBox="0 0 154.57 422.77"><defs><style>.cls-1{fill:#e2b07f;}.cls-2{fill:#dd98eb;}.cls-3{fill:#753225;}</style></defs><title>Asset 3</title><g id="Layer_2" data-name="Layer 2"><g id="Layer_1-2" data-name="Layer 1"><path d="M80.49,402.84S86.43,402.21,86,389s2.85-14.87-1.84-17.22-12.84-4.64-12.81,4.53-3.74,21.29-.63,23.81S80.49,402.84,80.49,402.84Z"/><path class="cls-1" d="M57,136s-2.3,5.93-3.14,19.2-12.59,52.16-12.59,52.16,6,9.28,6,11.43-2.68-1.41-4-1.35-2.6,6.54-2.26,8.31-1.35,2-1.76-1l-.41-3s-.74.12-.85,2.33-.47,3.56-1.37,2.69.16-5.19.16-5.19-.4,5.77-1.26,5.32-.65-4.33-.1-5.33-.81,4.64-1.63,4.26-.38-5.18.33-9.32S35.6,208,35.44,207s-.35-30.1,1-43.14S40,131.12,39.88,127s2.34-28.27,3.79-29,12.29,8.14,10.44,14S61.3,127.08,57,136Z"/><path class="cls-1" d="M83.16,306.7,85,373s-10.75-.85-11.67,2.61-20.13-60.77-19.5-68.95S82.87,296.62,83.16,306.7Z"/><path class="cls-1" d="M120.94,309.22l-9.44,100.1s-12.28,7.87-12.28-2.83S94,303.87,94,303.87,117.47,265.46,120.94,309.22Z"/><path class="cls-1" d="M134.18,92.07s9.06,15.1,13.21,40,7.17,47.56,7.17,55.49-2.26,31.33-2.26,35.48,2.26,18.87,2.26,18.87-5,7.35-7.93,7.75-3.39,0-2.58-4.31,1.73-8.23,0-6.86-1,3.72-1.73,3.92-2.55-.59-1.18-5.88,1-6.27.78-10.77-4.31-47.4-4.11-51.12-6.31-22.33-8-26S129.76,91,134.18,92.07Z"/><path class="cls-2" d="M112.29,81.88s21.89,8.3,21.89,10.19-4.91,50.2-7.93,63-1.13,24.16,4.91,46.43,11.32,50.2,11.7,71.72,3.4,29.82-1.89,29.07-26.42-4.81-32.84,0-14.72,14.3-33.22,7.88S51.8,303.08,45.24,305s-30-7.55-22.41-12.08,20-23.4,20-34.35,2.64-34,11.32-52.85,7.55-49.45,4.53-52.85S51.52,78.11,112.29,81.88Z"/><path d="M107.06,422.77s5.23-.56,5.08-9.85,2.79-10.49-1.28-12.05-11.19-3-11.34,3.42-3.7,15-1,16.73S107.06,422.77,107.06,422.77Z"/><path class="cls-3" d="M116.23,9.44s-6.42-8-16.34-9.28A21.8,21.8,0,0,0,87.44,2.37C70.78,10.45,66.24,18,61.19,33.17,54.87,52.11,46.38,50,38,67c-10.47,21.12-.45,27.51-12.08,45.72-5,7.89-8.94,9.86-16.7,22.95C7.18,139-2.4,155.48.56,157.81a2.22,2.22,0,0,0,2.05.09c6.56-2,19.69-9.59,34.84-5.55s46,14.64,59.08-2.52S109.66,114,108.65,92.25,120.77,63,121.78,34.18C121.78,34.18,122.63,15,116.23,9.44Z"/></g></g></svg>