<svg xmlns="http://www.w3.org/2000/svg" viewBox="0 0 106.35 257.74"><defs><style>.cls-1{fill:#dba481;}.cls-2{fill:#5cabe8;}.cls-3{fill:#753225;}</style></defs><title>Asset 2</title><g id="Layer_2" data-name="Layer 2"><g id="Layer_1-2" data-name="Layer 1"><path class="cls-1" d="M56.62,187.46l1.09,38.18s-6.18-.49-6.72,1.5-11.58-35-11.22-39.69S56.45,181.65,56.62,187.46Z"/><path class="cls-1" d="M78.36,188.91l-5.44,57.62s-7.07,4.53-7.07-1.63-3-59.07-3-59.07S76.36,163.72,78.36,188.91Z"/><path class="cls-1" d="M32.44,81.41S27.38,91.53,24,90.56s-12.78-5.19-12.58-6.74.56-5.53,0-6.23-.92,2.67-1.81,2.67-6.31-4.8-7-3.45S-1.65,81.12.92,84.08s17.93,18,21.93,19.55,8.57-1.56,10.8-5.23S32.44,81.41,32.44,81.41Z"/><path class="cls-1" d="M76.39,76.51s3-14.66,7.46-15.82,5.51,3.85,5.51,3.85,12,32.67,12,42.68,1,18.06,1.92,19.71,3.89,5.59,2.78,10.26-4.92,6.31-4.84,1.34-1.55-6-1.55-6-1.39,3.75-2.21,1.84.17-2.45.06-5.81S90.9,97.74,89.39,95.35,76.39,76.51,76.39,76.51Z"/><path class="cls-2" d="M80.92,60.67s1.86-1.33,4.26.8,5.32,18.88,4,22.07S82.89,103.22,85,110.4s6.6,29.46,6.6,37.73,2.13,26.09,6.38,28.75,2.39,4.79-1.86,6.38-13,6.91-26.59,3.72-7.18,2.39-17.29,2.13a77.85,77.85,0,0,1-12.87-1.57c-7.65-1.57-14.5-4.17-14-7.2.8-4.79,8-55,15.16-68.08S80.92,60.67,80.92,60.67Z"/><path d="M54.95,242.12s3.43-.31,3.28-7.94,1.77-8.53-.9-9.92-7.35-2.79-7.41,2.49-2.35,12.22-.57,13.7S54.95,242.12,54.95,242.12Z"/><path d="M69,257.74s3.44-.09,3.79-7.71,2.32-8.4-.26-10-7.15-3.26-7.56,2-3.13,12-1.46,13.63S69,257.74,69,257.74Z"/><path class="cls-3" d="M74.08,76.92s.8-4.26,7.45-13S91.1,24,86.85,15.22,74.88-1.62,63.45.28s-21,6.69-22.6,20S44,44.74,40.84,49,31.53,60.43,30.2,68.41s5.32,22.5-1.33,26.28S15.48,96.86,14.2,97.13s2.44,12.5,14.14,14.36,30.05,1.33,38.56-10.9S72.75,86,74.08,76.92Z"/></g></g></svg>